<mxfile host="app.diagrams.net" modified="2020-11-05T09:26:17.115Z" agent="5.0 (Windows NT 10.0; Win64; x64) AppleWebKit/537.36 (KHTML, like Gecko) Chrome/86.0.4240.111 Safari/537.36" etag="GbLFtzYD02emdyjomai0" version="13.9.1" type="github">
  <diagram id="-kXou0ZWH8-OpDwjOcQT" name="Page-1">
    <mxGraphModel dx="767" dy="469" grid="1" gridSize="10" guides="1" tooltips="1" connect="1" arrows="1" fold="1" page="1" pageScale="1" pageWidth="850" pageHeight="1100" math="0" shadow="0">
      <root>
        <mxCell id="0" />
        <mxCell id="1" parent="0" />
        <mxCell id="gR05SGJRpEg1psgvBS8F-13" value="Producto" style="swimlane;fontStyle=0;childLayout=stackLayout;horizontal=1;startSize=26;fillColor=none;horizontalStack=0;resizeParent=1;resizeParentMax=0;resizeLast=0;collapsible=1;marginBottom=0;" vertex="1" parent="1">
          <mxGeometry x="180" y="140" width="140" height="130" as="geometry">
            <mxRectangle x="200" y="150" width="80" height="26" as="alternateBounds" />
          </mxGeometry>
        </mxCell>
        <mxCell id="gR05SGJRpEg1psgvBS8F-14" value="nombre : stringÂ " style="text;strokeColor=none;fillColor=none;align=left;verticalAlign=top;spacingLeft=4;spacingRight=4;overflow=hidden;rotatable=0;points=[[0,0.5],[1,0.5]];portConstraint=eastwest;" vertex="1" parent="gR05SGJRpEg1psgvBS8F-13">
          <mxGeometry y="26" width="140" height="26" as="geometry" />
        </mxCell>
        <UserObject label="descripcion : string" link="http://dia-installer.de/index.html.es" id="gR05SGJRpEg1psgvBS8F-15">
          <mxCell style="text;strokeColor=none;fillColor=none;align=left;verticalAlign=top;spacingLeft=4;spacingRight=4;overflow=hidden;rotatable=0;points=[[0,0.5],[1,0.5]];portConstraint=eastwest;" vertex="1" parent="gR05SGJRpEg1psgvBS8F-13">
            <mxGeometry y="52" width="140" height="26" as="geometry" />
          </mxCell>
        </UserObject>
        <mxCell id="gR05SGJRpEg1psgvBS8F-16" value="precio: float" style="text;strokeColor=none;fillColor=none;align=left;verticalAlign=top;spacingLeft=4;spacingRight=4;overflow=hidden;rotatable=0;points=[[0,0.5],[1,0.5]];portConstraint=eastwest;" vertex="1" parent="gR05SGJRpEg1psgvBS8F-13">
          <mxGeometry y="78" width="140" height="26" as="geometry" />
        </mxCell>
        <mxCell id="gR05SGJRpEg1psgvBS8F-17" value="imagenURL : image" style="text;strokeColor=none;fillColor=none;align=left;verticalAlign=top;spacingLeft=4;spacingRight=4;overflow=hidden;rotatable=0;points=[[0,0.5],[1,0.5]];portConstraint=eastwest;" vertex="1" parent="gR05SGJRpEg1psgvBS8F-13">
          <mxGeometry y="104" width="140" height="26" as="geometry" />
        </mxCell>
      </root>
    </mxGraphModel>
  </diagram>
</mxfile>
